<svg id="visual" viewBox="0 0 900 200" width="900" height="200" xmlns="http://www.w3.org/2000/svg" xmlns:xlink="http://www.w3.org/1999/xlink" version="1.1"><rect x="0" y="0" width="900" height="200" fill="#ECE5C7"></rect><path d="M0 29L12.5 39.7C25 50.3 50 71.7 75 81.7C100 91.7 125 90.3 150 81.8C175 73.3 200 57.7 225 53.8C250 50 275 58 300 66.2C325 74.3 350 82.7 375 83.7C400 84.7 425 78.3 450 77.7C475 77 500 82 525 86.2C550 90.3 575 93.7 600 85.2C625 76.7 650 56.3 675 54C700 51.7 725 67.3 750 75.2C775 83 800 83 825 82.7C850 82.3 875 81.7 887.5 81.3L900 81L900 201L887.5 201C875 201 850 201 825 201C800 201 775 201 750 201C725 201 700 201 675 201C650 201 625 201 600 201C575 201 550 201 525 201C500 201 475 201 450 201C425 201 400 201 375 201C350 201 325 201 300 201C275 201 250 201 225 201C200 201 175 201 150 201C125 201 100 201 75 201C50 201 25 201 12.5 201L0 201Z" fill="#cdc2ae"></path><path d="M0 111L12.5 106C25 101 50 91 75 83.8C100 76.7 125 72.3 150 74C175 75.7 200 83.3 225 85.3C250 87.3 275 83.7 300 85.5C325 87.3 350 94.7 375 92.3C400 90 425 78 450 74.5C475 71 500 76 525 80.8C550 85.7 575 90.3 600 89.7C625 89 650 83 675 85.2C700 87.3 725 97.7 750 96.3C775 95 800 82 825 77.3C850 72.7 875 76.3 887.5 78.2L900 80L900 201L887.5 201C875 201 850 201 825 201C800 201 775 201 750 201C725 201 700 201 675 201C650 201 625 201 600 201C575 201 550 201 525 201C500 201 475 201 450 201C425 201 400 201 375 201C350 201 325 201 300 201C275 201 250 201 225 201C200 201 175 201 150 201C125 201 100 201 75 201C50 201 25 201 12.5 201L0 201Z" fill="#bcb29e"></path><path d="M0 96L12.5 92.3C25 88.7 50 81.3 75 85.2C100 89 125 104 150 109.3C175 114.7 200 110.3 225 110.2C250 110 275 114 300 113.2C325 112.3 350 106.7 375 105.3C400 104 425 107 450 111C475 115 500 120 525 122C550 124 575 123 600 121.7C625 120.3 650 118.7 675 118.5C700 118.3 725 119.7 750 114.8C775 110 800 99 825 99.5C850 100 875 112 887.5 118L900 124L900 201L887.5 201C875 201 850 201 825 201C800 201 775 201 750 201C725 201 700 201 675 201C650 201 625 201 600 201C575 201 550 201 525 201C500 201 475 201 450 201C425 201 400 201 375 201C350 201 325 201 300 201C275 201 250 201 225 201C200 201 175 201 150 201C125 201 100 201 75 201C50 201 25 201 12.5 201L0 201Z" fill="#aca28e"></path><path d="M0 138L12.5 138.8C25 139.7 50 141.3 75 139.8C100 138.3 125 133.7 150 130.3C175 127 200 125 225 121.8C250 118.7 275 114.3 300 109.2C325 104 350 98 375 96.2C400 94.3 425 96.7 450 103C475 109.3 500 119.7 525 125.8C550 132 575 134 600 132.2C625 130.3 650 124.7 675 121.7C700 118.7 725 118.3 750 116C775 113.7 800 109.3 825 105.2C850 101 875 97 887.5 95L900 93L900 201L887.5 201C875 201 850 201 825 201C800 201 775 201 750 201C725 201 700 201 675 201C650 201 625 201 600 201C575 201 550 201 525 201C500 201 475 201 450 201C425 201 400 201 375 201C350 201 325 201 300 201C275 201 250 201 225 201C200 201 175 201 150 201C125 201 100 201 75 201C50 201 25 201 12.5 201L0 201Z" fill="#9c927e"></path><path d="M0 154L12.5 148.2C25 142.3 50 130.7 75 126C100 121.3 125 123.7 150 126.7C175 129.7 200 133.3 225 136.2C250 139 275 141 300 138.5C325 136 350 129 375 125C400 121 425 120 450 121.2C475 122.3 500 125.7 525 131.2C550 136.7 575 144.3 600 145.8C625 147.3 650 142.7 675 142.2C700 141.7 725 145.3 750 143.3C775 141.3 800 133.7 825 129.5C850 125.3 875 124.7 887.5 124.3L900 124L900 201L887.5 201C875 201 850 201 825 201C800 201 775 201 750 201C725 201 700 201 675 201C650 201 625 201 600 201C575 201 550 201 525 201C500 201 475 201 450 201C425 201 400 201 375 201C350 201 325 201 300 201C275 201 250 201 225 201C200 201 175 201 150 201C125 201 100 201 75 201C50 201 25 201 12.5 201L0 201Z" fill="#8c826f"></path><path d="M0 143L12.5 145.2C25 147.3 50 151.7 75 155C100 158.3 125 160.7 150 159.3C175 158 200 153 225 154.3C250 155.7 275 163.3 300 167.7C325 172 350 173 375 168C400 163 425 152 450 151.5C475 151 500 161 525 163.8C550 166.7 575 162.3 600 158.2C625 154 650 150 675 152.3C700 154.7 725 163.3 750 164.5C775 165.7 800 159.3 825 158.8C850 158.3 875 163.7 887.5 166.3L900 169L900 201L887.5 201C875 201 850 201 825 201C800 201 775 201 750 201C725 201 700 201 675 201C650 201 625 201 600 201C575 201 550 201 525 201C500 201 475 201 450 201C425 201 400 201 375 201C350 201 325 201 300 201C275 201 250 201 225 201C200 201 175 201 150 201C125 201 100 201 75 201C50 201 25 201 12.5 201L0 201Z" fill="#7c7360"></path><path d="M0 174L12.5 171.5C25 169 50 164 75 163.8C100 163.7 125 168.3 150 170C175 171.7 200 170.3 225 172.8C250 175.3 275 181.7 300 181.8C325 182 350 176 375 171.8C400 167.7 425 165.3 450 167.8C475 170.3 500 177.7 525 180.2C550 182.7 575 180.3 600 180.3C625 180.3 650 182.7 675 182.8C700 183 725 181 750 180.3C775 179.7 800 180.3 825 181.3C850 182.3 875 183.7 887.5 184.3L900 185L900 201L887.5 201C875 201 850 201 825 201C800 201 775 201 750 201C725 201 700 201 675 201C650 201 625 201 600 201C575 201 550 201 525 201C500 201 475 201 450 201C425 201 400 201 375 201C350 201 325 201 300 201C275 201 250 201 225 201C200 201 175 201 150 201C125 201 100 201 75 201C50 201 25 201 12.5 201L0 201Z" fill="#6d6452"></path></svg>