<svg id="visual" viewBox="0 0 900 600" width="900" height="600" xmlns="http://www.w3.org/2000/svg" xmlns:xlink="http://www.w3.org/1999/xlink" version="1.1"><rect width="900" height="600" fill="#c1c1c1"></rect><g><g transform="translate(779 531)"><path d="M94.1 -89.9C117.7 -70.4 129.9 -35.2 130.6 0.7C131.3 36.7 120.7 73.4 97 95.8C73.4 118.2 36.7 126.4 4.2 122.2C-28.3 118 -56.7 101.5 -82.4 79.1C-108.2 56.7 -131.4 28.3 -132.9 -1.5C-134.4 -31.4 -114.2 -62.7 -88.5 -82.3C-62.7 -101.8 -31.4 -109.5 1.9 -111.4C35.2 -113.3 70.4 -109.5 94.1 -89.9Z" fill="#919191"></path></g><g transform="translate(842 210)"><path d="M57.6 -58.1C72.8 -42.4 82 -21.2 82.4 0.3C82.7 21.8 74.1 43.7 58.9 58.3C43.7 72.8 21.8 80.1 -0.8 80.9C-23.5 81.8 -47.1 76.2 -65.7 61.6C-84.2 47.1 -97.8 23.5 -97.4 0.5C-96.9 -22.6 -82.4 -45.3 -63.9 -61C-45.3 -76.7 -22.6 -85.5 -0.7 -84.7C21.2 -84 42.4 -73.8 57.6 -58.1Z" fill="#919191"></path></g><g transform="translate(136 140)"><path d="M89.4 -91.9C108.9 -69.8 113.2 -34.9 112.4 -0.7C111.7 33.5 106 66.9 86.5 91.7C66.9 116.5 33.5 132.7 1.2 131.5C-31.1 130.3 -62.2 111.8 -87.3 87C-112.4 62.2 -131.5 31.1 -130.5 1C-129.4 -29 -108.2 -58 -83.1 -80.1C-58 -102.2 -29 -117.4 3 -120.3C34.9 -123.3 69.8 -114 89.4 -91.9Z" fill="#919191"></path></g><g transform="translate(500 96)"><path d="M70.6 -69.7C89.2 -52 100.4 -26 100.2 -0.2C100 25.5 88.3 51.1 69.7 68.1C51.1 85.2 25.5 93.7 -1.5 95.2C-28.5 96.7 -57.1 91.2 -77.9 74.1C-98.7 57.1 -111.9 28.5 -110.1 1.8C-108.3 -25 -91.7 -50 -70.8 -67.6C-50 -85.3 -25 -95.6 0.5 -96.1C26 -96.6 52 -87.3 70.6 -69.7Z" fill="#919191"></path></g><g transform="translate(359 428)"><path d="M57.6 -57.6C73 -42.3 82.5 -21.1 85.2 2.7C87.9 26.5 83.7 53 68.3 69.2C53 85.5 26.5 91.5 1.1 90.3C-24.2 89.2 -48.5 81 -63.6 64.7C-78.8 48.5 -84.8 24.2 -85.2 -0.3C-85.5 -24.9 -80.2 -49.9 -65 -65.2C-49.9 -80.5 -24.9 -86.2 -1.9 -84.3C21.1 -82.4 42.3 -72.9 57.6 -57.6Z" fill="#919191"></path></g><g transform="translate(11 453)"><path d="M78.3 -75.9C101.6 -55.1 120.4 -27.6 122.2 1.8C124 31.1 108.6 62.2 85.4 83.2C62.2 104.2 31.1 115.1 0 115C-31 115 -62.1 104.1 -87 83.1C-112 62.1 -130.9 31 -131 -0.1C-131.1 -31.2 -112.3 -62.4 -87.3 -83.1C-62.4 -103.9 -31.2 -114.2 -1.8 -112.4C27.6 -110.6 55.1 -96.7 78.3 -75.9Z" fill="#919191"></path></g></g></svg>